# xmcd
#
# Track frame offsets:
#	180
#	15670
#	32028
#	44150
#	58555
#	72475
#	96120
#	110810
#	125978
#	160345
#
# Disc length: 2413 seconds
# Revision: 0
# Processed by: cddbd v1.5.2PL0 Copyright (c) Steve Scherf et al.
# Submitted via: dBpowerAMP V12.0
#
DISCID=95096b0a
DTITLE=Finestreet - Finestreet
DYEAR=1994
DGENRE=Country
TTITLE0=Home In My Heart
TTITLE1=Good Woman's Love
TTITLE2=Ocean Of Tears
TTITLE3=What A Love
TTITLE4=Honky Tonk Heart
TTITLE5=Nothing Can Hurt You
TTITLE6=White Freightliner Blues
TTITLE7=I'm So Lonesome I Could Cry
TTITLE8=Crazy Train
TTITLE9=Good Friends Of Mine
EXTD=
EXTT0=
EXTT1=
EXTT2=
EXTT3=
EXTT4=
EXTT5=
EXTT6=
EXTT7=
EXTT8=
EXTT9=
PLAYORDER=
